# xmcd
#
# Track frame offsets:
#	150
#	17706
#	31326
#	47382
#	59392
#	73629
#	87017
#	101094
#	114564
#	125498
#	137228
#	149158
#	164698
#	190612
#	208919
#	222371
#	240143
#
# Disc length: 3387 seconds
#
# Revision: 1
# Processed by: cddbd v1.5.2PL0 Copyright (c) Steve Scherf et al.
# Submitted via: audiograbber 1.83.01
#
DISCID=f90d3911
DTITLE=VÁRIOS - 100 ANOS DE GONZAGÃO
DYEAR=1900
DGENRE=FORRÓ
TTITLE0=DOMINGUINHOS, AMELINHA, G. AZEVEDO, EDNARDO, ANASTÁCIA E MERETRIO - ASA
TTITLE0=BRANCA(CITAÇÃO: HORO DO ADEUS)
TTITLE1=FAFÁ DE BELÉM - A VOLTA DA ASA BRANCA
TTITLE2=ZÉ RAMALHO - A MORTE DO VAQUEIRO
TTITLE3=ELBA RAMALHO - NO MEU PÉ DE SERRA
TTITLE4=GERALDO AZEVEDO - ESTRADA DE CANNINDÉ
TTITLE5=AMELINHA - LÉGUA TIRANA
TTITLE6=VANGUART - ASUM PRETO
TTITLE7=CIDA MOREIRA - ACAUÃ
TTITLE8=DANIEL GONZAGA - JUAZEIRO
TTITLE9=AYRTON MONTARROYOS - RIACHO DO NAVIO
TTITLE10=ZEZÉ MOTTA - A VIDA DO VIAJANTE
TTITLE11=ANASTÁCIA E OSVALDINHO DO ACORDEON - A FEIRA DE CARUARU
TTITLE12=CÁTIA DE FRANÇA-PASSOCA - VOZES DA SECA-BAIÃO DA GAROA
TTITLE13=CHICO CÉSSAR - PAU DE ARARA
TTITLE14=GUADALUPE E LIV MORAES - AVE MARIA SERTANEJA
TTITLE15=ANDRÉ RIO E METRE GENARO - BOIADEIRO
TTITLE16=GONZAGA LEAL - NOITES BRASILEIRAS
EXTD=
EXTT0=
EXTT1=
EXTT2=
EXTT3=
EXTT4=
EXTT5=
EXTT6=
EXTT7=
EXTT8=
EXTT9=
EXTT10=
EXTT11=
EXTT12=
EXTT13=
EXTT14=
EXTT15=
EXTT16=
PLAYORDER=
